<svg width="580" height="400" xmlns="http://www.w3.org/2000/svg">
 <!-- Created with Method Draw - http://github.com/duopixel/Method-Draw/ -->
 <g>
  <title>background</title>
  <rect fill="#fff" id="canvas_background" height="402" width="582" y="-1" x="-1"/>
  <g display="none" overflow="visible" y="0" x="0" height="100%" width="100%" id="canvasGrid">
   <rect fill="url(#gridpattern)" stroke-width="0" y="0" x="0" height="100%" width="100%"/>
  </g>
 </g>
 <g>
  <title>Layer 1</title>
  <text font-weight="bold" stroke="#007f3f" transform="matrix(2.9472615718841553,0,0,2.9472615718841553,-450.79105389118195,-367.05880630016327) " xml:space="preserve" text-anchor="start" font-family="Helvetica, Arial, sans-serif" font-size="24" id="svg_47" y="199.981762" x="214.195801" stroke-opacity="null" stroke-width="0" fill="#12ad0f">NODE</text>
  <path id="svg_49" d="m411.82047,125.50923c-1.22421,-51.66678 -43.46593,-93.17134 -95.40916,-93.19767c-34.72535,0.02633 -65.05408,18.58688 -81.71909,46.30924c-7.8323,-4.30447 -16.8493,-6.8187 -26.45867,-6.8187c-29.99965,0.02633 -54.4048,23.78647 -55.49738,53.52284c-31.50029,10.34653 -54.29949,39.81963 -54.32582,74.84774c0,43.59755 35.37036,78.98108 78.98109,78.98108l0,-0.02633l208.97079,0c43.59756,0 78.98109,-35.38352 78.98109,-78.98108c-0.05266,-34.72535 -22.45696,-64.06682 -53.52285,-74.63712zm-25.48457,127.3175l-208.95763,0c-29.0782,-0.07898 -52.61456,-23.60218 -52.66722,-52.65405c-0.02632,-26.10325 19.0871,-47.63875 44.09778,-51.7721c3.48833,-0.56603 6.60808,-2.50107 8.64842,-5.44969c2.04035,-2.9223 2.79067,-6.54227 2.14566,-10.0306c-0.36858,-1.96136 -0.59236,-3.79109 -0.59236,-5.58133c0.05265,-16.1253 13.0977,-29.18351 29.223,-29.20983c8.5168,0 16.02,3.65945 21.49602,9.62252c3.0671,3.38303 7.72698,4.93632 12.20258,4.08069c4.50192,-0.86879 8.24036,-4.05436 9.84631,-8.30617c9.85947,-26.22172 35.04127,-44.91391 64.64602,-44.88758c38.14786,0.05265 69.02947,30.94742 69.12161,69.10844c0,2.10616 -0.11847,4.27814 -0.34225,6.5291c-0.65818,6.8187 4.01487,12.9529 10.7151,14.20343c24.47097,4.54142 43.08418,25.87947 43.05786,51.64046c-0.06582,29.10453 -23.56269,52.62773 -52.6409,52.70671z" stroke-width="0" fill="#4bd0ea"/>
  <text opacity="0.8" stroke="#007f3f" transform="matrix(1.3190429210662842,0,0,1.3190429210662842,-90.76771104335785,-69.39183533191681) " font-weight="bold" xml:space="preserve" text-anchor="start" font-family="Helvetica, Arial, sans-serif" font-size="20" id="svg_48" y="260.634183" x="271.002287" stroke-width="0" fill="#ffffff">JS</text>
  <rect opacity="0.8" id="svg_50" height="2" width="40" y="264.5" x="219.5" stroke-width="1.5" fill="#ffffff"/>
  <rect opacity="0.8" id="svg_51" height="2" width="40" y="264.5" x="305.96965" stroke-width="1.5" fill="#ffffff"/>
 </g>
</svg>