<svg width="299" height="95" xmlns="http://www.w3.org/2000/svg">
 <!-- Created with Method Draw - http://github.com/duopixel/Method-Draw/ -->
 <!--<g>
  <title>background</title>
  <rect fill="#fff" id="canvas_background" height="97" width="301" y="-1" x="-1"/>
  <g display="none" overflow="visible" y="0" x="0" height="100%" width="100%" id="canvasGrid">
   <rect fill="url(#gridpattern)" stroke-width="0" y="0" x="0" height="100%" width="100%"/>
  </g>
 </g> -->
 <g>
  <title>Layer 1</title>
  <text font-weight="bold" stroke="#007f3f" transform="matrix(2.9472615718841553,0,0,2.9472615718841553,-450.79105389118195,-367.05880630016327) " xml:space="preserve" text-anchor="start" font-family="Helvetica, Arial, sans-serif" font-size="20" id="svg_47" y="149.926855" x="196.337383" stroke-opacity="null" stroke-width="0" fill="#12ad0f">NODE</text>
  <path stroke="#007f3f" id="svg_49" d="m110.49875,35.531462c-0.41676,-17.589006 -14.797178,-31.718472 -32.480298,-31.727436c-11.821607,0.008964 -22.146467,6.327562 -27.819764,15.765131c-2.666362,-1.465378 -5.736035,-2.321301 -9.007368,-2.321301c-10.21283,0.008963 -18.521116,8.097667 -18.893065,18.220868c-10.723695,3.522286 -18.485264,13.555862 -18.494228,25.480539c0,14.841986 12.04119,26.887659 26.887663,26.887659l0,-0.008963l71.14027,0c14.841989,0 26.887662,-12.04567 26.887662,-26.887659c-0.017927,-11.821608 -7.64506,-21.810373 -18.220872,-25.408838zm-8.675754,43.342906l-71.13579,0c-9.899139,-0.026887 -17.911661,-8.034929 -17.929588,-17.925105c-0.00896,-8.886372 6.497853,-16.217737 15.01228,-17.624861c1.187538,-0.192694 2.249599,-0.851443 2.944195,-1.855247c0.6946,-0.994843 0.950033,-2.227195 0.730451,-3.414733c-0.125476,-0.667709 -0.201658,-1.290607 -0.201658,-1.900061c0.017924,-5.489563 4.458872,-9.934991 9.948434,-9.943951c2.899388,0 5.453715,1.245792 7.317925,3.27581c1.044138,1.15169 2.630509,1.68048 4.154144,1.389196c1.532597,-0.295763 2.80528,-1.380232 3.351996,-2.827683c3.356476,-8.926703 11.929158,-15.290116 22.007551,-15.281152c12.986739,0.017923 23.499816,10.535481 23.531184,23.5267c0,0.717003 -0.040331,1.456414 -0.116513,2.222712c-0.224066,2.321301 1.366789,4.409577 3.647759,4.835296c8.330692,1.546044 14.667218,8.810191 14.658258,17.580047c-0.022407,9.908103 -8.021485,17.916145 -17.920628,17.943032z" stroke-width="0" fill="#4bd0ea"/>
 </g>
</svg>
